#format: frame checksums
#version: 1
#hash: MD5
#tb 0: 1001/30000
#stream#, dts,        pts, duration,     size, hash
0,          0,          0,        1,     3264, 68d00958a78e6252dd75d632806e2022
0,          1,          1,        1,     3264, f7b6266e74200a669eecd241db787ee2
0,          2,          2,        1,     3264, c8b88d43aee037857310edeb74bc66f4
0,          3,          3,        1,     3264, c6d9a52baf3ca962574bff1364fcb8dc
0,          4,          4,        1,     3264, b384fbf3ceef0affa69f5e81681edc6e
0,          5,          5,        1,     3264, cd473f0c8d1cde98153402123a3ee7cf
0,          6,          6,        1,     3264, c0f320a23c3e39719a3b3590fe3c2ab5
0,          7,          7,        1,     3264, 751207d15a791728c1022f711a25cd68
0,          8,          8,        1,     3264, 7396df89a0d88044cf7527420d193636
0,          9,          9,        1,     3264, b772dd247838b0c3ed12713447894323
